<?xml version="1.0" encoding="UTF-8"?>
<!-- Uploaded to: SVG Find, www.svgfind.com, Generator: SVG Find Mixer Tools -->
<svg fill="#ff3b30" width="800px" height="800px" version="1.1" viewBox="144 144 512 512" xmlns="http://www.w3.org/2000/svg">
 <path d="m478.72 226.81h-15.742v-15.742c0-8.3516-3.3203-16.359-9.2227-22.266-5.9062-5.9062-13.918-9.2227-22.266-9.2227h-62.977c-8.3516 0-16.363 3.3164-22.266 9.2227-5.9062 5.9062-9.2227 13.914-9.2227 22.266v15.742h-15.746c-12.527 0-24.539 4.9766-33.398 13.836-8.8555 8.8555-13.832 20.871-13.832 33.398v299.14c0 12.527 4.9766 24.539 13.832 33.398 8.8594 8.8555 20.871 13.832 33.398 13.832h157.44c12.527 0 24.539-4.9766 33.398-13.832 8.8594-8.8594 13.832-20.871 13.832-33.398v-299.14c0-12.527-4.9727-24.543-13.832-33.398-8.8594-8.8594-20.871-13.836-33.398-13.836zm-110.21-15.742h62.977v15.742h-62.977zm125.95 362.11h-0.003906c0 4.1758-1.6562 8.1797-4.6094 11.133-2.9531 2.9531-6.957 4.6094-11.133 4.6094h-157.44c-4.1758 0-8.1797-1.6562-11.133-4.6094s-4.6094-6.957-4.6094-11.133v-299.14c0-4.1758 1.6562-8.1797 4.6094-11.133 2.9531-2.9531 6.957-4.6133 11.133-4.6133h157.44c4.1758 0 8.1797 1.6602 11.133 4.6133 2.9531 2.9531 4.6094 6.957 4.6094 11.133z"/>
</svg>
