<?xml version="1.0" encoding="UTF-8" standalone="no"?>
<!DOCTYPE svg PUBLIC "-//W3C//DTD SVG 1.1//EN" "http://www.w3.org/Graphics/SVG/1.1/DTD/svg11.dtd">
<svg width="100%" height="100%" viewBox="0 0 800 800" version="1.1" xmlns="http://www.w3.org/2000/svg" xmlns:xlink="http://www.w3.org/1999/xlink" xml:space="preserve" xmlns:serif="http://www.serif.com/" style="fill-rule:evenodd;clip-rule:evenodd;stroke-linejoin:round;stroke-miterlimit:2;">
    <g transform="matrix(1.5625,0,0,1.5625,-225,-225)">
        <path d="M478.72,226.81L462.978,226.81L462.978,211.068C462.978,202.716 459.658,194.709 453.755,188.802C447.849,182.896 439.837,179.579 431.489,179.579L368.512,179.579C360.161,179.579 352.149,182.896 346.246,188.802C340.34,194.708 337.024,202.716 337.024,211.068L337.024,226.81L321.278,226.81C308.751,226.81 296.739,231.787 287.88,240.646C279.024,249.502 274.048,261.517 274.048,274.044L274.048,573.184C274.048,585.711 279.024,597.723 287.88,606.582C296.739,615.438 308.751,620.414 321.278,620.414L478.718,620.414C491.245,620.414 503.257,615.437 512.116,606.582C520.975,597.723 525.948,585.711 525.948,573.184L525.948,274.044C525.948,261.517 520.975,249.501 512.116,240.646C503.256,231.787 491.245,226.81 478.718,226.81L478.72,226.81ZM368.51,211.068L431.487,211.068L431.487,226.81L368.51,226.81L368.51,211.068ZM494.46,573.178L494.456,573.178C494.456,577.354 492.8,581.358 489.847,584.311C486.894,587.264 482.89,588.92 478.714,588.92L321.274,588.92C317.098,588.92 313.094,587.264 310.141,584.311C307.187,581.358 305.531,577.354 305.531,573.178L305.531,274.038C305.531,269.862 307.187,265.858 310.141,262.905C313.094,259.952 317.098,258.292 321.274,258.292L478.714,258.292C482.889,258.292 486.893,259.952 489.847,262.905C492.8,265.858 494.456,269.862 494.456,274.038L494.46,573.178Z" style="fill-rule:nonzero;"/>
    </g>
    <g transform="matrix(0.896266,0,0,0.997429,26.705394,-30.231362)">
        <path d="M537,316.955L537,670.045C537,679.955 528.046,688 517.018,688L315.982,688C304.954,688 296,679.955 296,670.045L296,316.955C296,307.045 304.954,299 315.982,299L517.018,299C528.046,299 537,307.045 537,316.955Z"/>
    </g>
</svg>
