<svg width="100%" height="100%" viewBox="0 0 16 16" version="1.1" xmlns="http://www.w3.org/2000/svg">
    <circle cx="7.991" cy="7.489" r="2.308"/>
    <path d="M7.7,9.73L7.7,10.5C7.7,11.45 8.5,12.35 9.8,12.35C10.567,12.36 11.313,12.094 11.9,11.6C12.877,10.617 13.426,9.286 13.426,7.899C13.426,5.019 11.056,2.649 8.176,2.649C5.296,2.649 2.926,5.019 2.926,7.899C2.926,8.931 3.23,9.94 3.8,10.8C3.897,10.93 3.95,11.088 3.95,11.25C3.95,11.661 3.611,12 3.2,12C2.964,12 2.742,11.889 2.6,11.7C1.878,10.6 1.493,9.312 1.493,7.996C1.493,4.384 4.391,1.38 8,1.25C11.629,1.353 14.558,4.367 14.558,7.997C14.558,9.753 13.873,11.441 12.65,12.7C11.9,13.4 10.9,13.8 9.8,13.8C7.6,13.8 6.2,12.3 6.2,10.45L6.2,8.843C6.555,9.316 7.09,9.647 7.7,9.73Z"/>
</svg>
