<?xml version="1.0" encoding="UTF-8" standalone="no"?>
<!DOCTYPE svg PUBLIC "-//W3C//DTD SVG 1.1//EN" "http://www.w3.org/Graphics/SVG/1.1/DTD/svg11.dtd">
<svg width="100%" height="100%" viewBox="0 0 26 25" version="1.1" xmlns="http://www.w3.org/2000/svg" xmlns:xlink="http://www.w3.org/1999/xlink" xml:space="preserve" xmlns:serif="http://www.serif.com/" style="fill-rule:evenodd;clip-rule:evenodd;stroke-linejoin:round;stroke-miterlimit:2;">
    <g id="Icon" transform="matrix(1,0,0,1,0,-3)">
        <g id="Vector" transform="matrix(0.851623,0,0,0.846006,2.819144,1.461983)">
            <path d="M24.664,3L12.26,3C12.26,5.994 14.77,8.432 17.853,8.432L20.147,8.432L20.147,10.556C20.147,13.55 22.657,15.988 25.739,15.988L25.739,4.045C25.739,3.453 25.273,3 24.664,3Z" style="fill-rule:nonzero;stroke:black;stroke-width:1.18px;"/>
        </g>
        <g id="Vector_2" transform="matrix(0.851624,0,0,0.846418,1.909564,2.380516)">
            <path d="M18.534,8.989L6.13,8.989C6.13,11.983 8.64,14.421 11.723,14.421L14.017,14.421L14.017,16.579C14.017,19.574 16.526,22.011 19.609,22.011L19.609,10.033C19.609,9.476 19.143,8.989 18.534,8.989Z" style="fill-rule:nonzero;stroke:black;stroke-width:1.18px;"/>
        </g>
        <g id="Vector_3" transform="matrix(0.851623,0,0,0.846005,1,3.311856)">
            <path d="M12.404,15.012L0,15.012C0,18.007 2.509,20.444 5.592,20.444L7.887,20.444L7.887,22.568C7.887,25.563 10.396,28 13.479,28L13.479,16.057C13.479,15.465 12.977,15.012 12.404,15.012Z" style="fill-rule:nonzero;stroke:black;stroke-width:1.18px;"/>
        </g>
    </g>
</svg>
