<?xml version="1.0" encoding="iso-8859-1"?>
<!-- Uploaded to: SVG Repo, www.svgrepo.com, Generator: SVG Repo Mixer Tools -->
<svg fill="#000000" height="800px" width="800px" version="1.1" id="Layer_1" xmlns="http://www.w3.org/2000/svg" xmlns:xlink="http://www.w3.org/1999/xlink" 
	 viewBox="0 0 512 512" xml:space="preserve">
<g>
	<g>
		<path d="M491.842,156.429c-19.471-45.945-51.935-85.013-92.785-112.638C358.221,16.167,308.896-0.007,256,0
			c-35.255-0.002-68.948,7.181-99.573,20.159C110.48,39.631,71.414,72.096,43.79,112.945C16.166,153.783-0.007,203.107,0,256
			c-0.002,35.253,7.18,68.946,20.158,99.571c19.471,45.945,51.935,85.013,92.785,112.638C153.78,495.834,203.106,512.007,256,512
			c35.255,0.002,68.948-7.181,99.573-20.159c45.946-19.471,85.013-51.937,112.637-92.786C495.834,358.217,512.007,308.893,512,256
			C512.002,220.746,504.82,187.054,491.842,156.429z M460.413,342.255c-16.851,39.781-45.044,73.724-80.475,97.677
			c-35.443,23.953-78.02,37.927-123.938,37.934c-30.62-0.002-59.731-6.219-86.257-17.454
			c-39.781-16.851-73.723-45.045-97.676-80.476C48.113,344.493,34.14,301.915,34.133,256c0.002-30.619,6.218-59.729,17.454-86.255
			c16.85-39.781,45.044-73.724,80.475-97.677C167.505,48.113,210.083,34.14,256,34.133c30.62,0.002,59.731,6.219,86.257,17.454
			c39.781,16.851,73.723,45.045,97.676,80.476c23.953,35.443,37.926,78.02,37.933,123.937
			C477.864,286.619,471.649,315.729,460.413,342.255z"/>
	</g>
</g>
<g>
	<g>
		<path d="M356.195,339.498c-2.352-0.002-4.507-0.468-6.495-1.306c-2.975-1.255-5.559-3.394-7.362-6.068
			c-0.902-1.336-1.61-2.798-2.094-4.353c-0.483-1.557-0.747-3.206-0.748-4.972V172.505h16.699c9.222,0,16.699-7.477,16.699-16.699
			c0-9.222-7.477-16.699-16.699-16.699H155.803c-9.222,0-16.699,7.477-16.699,16.699c0.001,9.221,7.478,16.698,16.7,16.698h16.699
			v183.692c0,9.222,7.477,16.699,16.699,16.699s16.699-7.477,16.699-16.699V172.504h100.196v150.294
			c-0.002,6.871,1.402,13.503,3.943,19.506c3.815,9.012,10.145,16.628,18.132,22.026c3.994,2.699,8.411,4.843,13.13,6.311
			c4.718,1.468,9.739,2.255,14.891,2.255c9.222,0,16.699-7.477,16.699-16.699S365.417,339.498,356.195,339.498z"/>
	</g>
</g>
</svg>