<?xml version="1.0" encoding="iso-8859-1"?>
<!-- Uploaded to: SVG Repo, www.svgrepo.com, Generator: SVG Repo Mixer Tools -->
<svg fill="#000000" height="800px" width="800px" version="1.1" id="Layer_1" xmlns="http://www.w3.org/2000/svg" xmlns:xlink="http://www.w3.org/1999/xlink" 
	 viewBox="0 0 512 512" xml:space="preserve">
<g>
	<g>
		<path d="M256,0C114.844,0,0,114.839,0,256s114.844,256,256,256s256-114.839,256-256S397.156,0,256,0z M356.196,339.496
			c9.219,0,16.699,7.475,16.699,16.699c0,9.225-7.48,16.699-16.699,16.699c-27.625,0-50.098-22.473-50.098-50.098V172.504H205.902
			v183.692c0,9.225-7.48,16.699-16.699,16.699s-16.699-7.475-16.699-16.699V172.504h-16.699c-9.219,0-16.699-7.475-16.699-16.699
			s7.48-16.699,16.699-16.699h200.391c9.219,0,16.699,7.475,16.699,16.699s-7.48,16.699-16.699,16.699h-16.699v150.294
			C339.496,332.005,346.988,339.496,356.196,339.496z"/>
	</g>
</g>
</svg>