<?xml version="1.0" encoding="UTF-8" standalone="no"?><!DOCTYPE svg PUBLIC "-//W3C//DTD SVG 1.1//EN" "http://www.w3.org/Graphics/SVG/1.1/DTD/svg11.dtd"><svg width="100%" height="100%" viewBox="0 0 1081 989" version="1.1" xmlns="http://www.w3.org/2000/svg" xmlns:xlink="http://www.w3.org/1999/xlink" xml:space="preserve" xmlns:serif="http://www.serif.com/" style="fill-rule:evenodd;clip-rule:evenodd;stroke-linejoin:round;stroke-miterlimit:2;"><g><path d="M1074.325,473.962c-36.875,-95.426 -113.02,-247.29 -157.68,-346.77c-9.551,-21.266 -10.441,-101.69 -37.129,-113.29c-26.688,-11.6 -80.051,26.281 -163.59,27.445c-22.32,26.785 -55.609,75.516 -69.781,96.574c-2.438,-6.289 -8.195,-10.715 -14.914,-10.715l-5.793,0l0,-63.805c0,-3.84 -3.121,-6.961 -6.961,-6.961c0,0 -387.43,-52.645 -412.5,-56.039c-25.055,-3.406 -22.703,15.898 -20.809,19.246l56.34,107.57l-2.398,0c-8.93,0 -16.164,7.789 -16.164,17.398l-16.32,97.453c0,9.613 7.789,17.398 17.398,17.398l-3.59,0c-3.156,0 -6.109,-0.852 -8.664,-2.328c-126.78,79.305 -211.77,223.63 -211.77,381.69c0,209.99 193.22,349.21 431.58,349.21c238.36,0 431.58,-139.22 431.58,-349.21c0,-157.41 -84.312,-301.18 -210.21,-380.69c6.324,-2.606 10.777,-8.82 10.777,-16.078l-2.231,-13.32c30.742,-20.039 84.359,-55.402 99.719,-68.363c21.926,-18.492 65.004,-28.402 89.328,24.359c13.957,30.277 85.031,216.35 164.16,306.11c14.699,16.68 32.461,25.043 48.637,25.727c8.641,0.359 25.5,-5.066 10.992,-42.613l-0.007,0.002Zm-411.88,-144.9c92.578,74.977 148.5,189.82 148.5,309.77c0,84.445 -36.781,157.82 -106.36,212.22c-69.938,54.672 -166.89,84.781 -273.02,84.781c-106.12,0 -203.07,-30.109 -273.02,-84.781c-69.574,-54.383 -106.36,-127.78 -106.36,-212.22c0,-117.3 53.473,-229.7 142.4,-304.73c9.371,-7.906 23.508,-22.441 59.473,-22.441l356.17,0c29.016,0 44.723,11.328 52.211,17.398l0.006,0.003Z" style="fill-rule:nonzero;"/><path d="M643.595,352.372c-3.961,-3.203 -13.223,-10.703 -33.336,-10.703l-356.16,0c-22.297,0 -30.191,6.816 -37.824,13.402l-2.293,1.969c-82.5,69.602 -131.75,174.95 -131.75,281.8c0,74.879 32.785,140.09 94.824,188.58c64.691,50.566 155.09,78.422 254.54,78.422c99.457,0 189.85,-27.852 254.54,-78.422c62.027,-48.504 94.824,-113.71 94.824,-188.58c0.016,-109.7 -51.344,-216.79 -137.38,-286.46l0.015,-0.008Zm18.52,266.61c-21.371,26.027 -29.664,21.348 -18.406,-10.391c0,0 17.578,-49.621 4.488,-108.56c-13.094,-58.945 -50.039,-96.457 -50.039,-96.457c-23.641,-24 -18.109,-31.754 12.277,-17.207c0,0 69.238,33.109 84.816,103.21c15.57,70.09 -33.137,129.41 -33.137,129.41l0.001,-0.005Z" style="fill-rule:nonzero;"/></g></svg>