<?xml version="1.0" encoding="UTF-8" standalone="no"?>
<!DOCTYPE svg PUBLIC "-//W3C//DTD SVG 1.1//EN" "http://www.w3.org/Graphics/SVG/1.1/DTD/svg11.dtd">
<svg width="100%" height="100%" viewBox="0 0 1081 989" version="1.1" xmlns="http://www.w3.org/2000/svg" xmlns:xlink="http://www.w3.org/1999/xlink" xml:space="preserve" xmlns:serif="http://www.serif.com/" style="fill-rule:evenodd;clip-rule:evenodd;stroke-linejoin:round;stroke-miterlimit:2;">
    <g id="svg_1" transform="matrix(1,0,0,1,-59.97,-105.988001)">
        <path id="svg_2" d="M1134.3,579.95C1097.42,484.52 1021.28,332.66 976.62,233.18C967.07,211.91 966.18,131.49 939.49,119.89C912.8,108.29 859.44,146.17 775.9,147.34C753.58,174.12 720.29,222.85 706.12,243.91C703.68,237.62 697.92,233.19 691.21,233.19L685.41,233.19L685.41,169.39C685.41,165.55 682.29,162.43 678.45,162.43C678.45,162.43 291.02,109.78 265.95,106.39C240.9,102.98 243.25,122.29 245.14,125.64L301.48,233.21L299.08,233.21C290.15,233.21 282.92,240.99 282.92,250.6L266.6,348.06C266.6,357.67 274.39,365.45 284,365.45L280.41,365.45C277.25,365.45 274.3,364.6 271.74,363.13C144.96,442.43 59.97,586.76 59.97,744.82C59.97,954.81 253.19,1094.03 491.55,1094.03C729.91,1094.03 923.13,954.81 923.13,744.82C923.13,587.41 838.82,443.64 712.92,364.13C719.25,361.52 723.7,355.31 723.7,348.05L721.47,334.73C752.21,314.69 805.83,279.33 821.19,266.37C843.12,247.87 886.19,237.96 910.52,290.72C924.48,321 995.55,507.07 1074.68,596.83C1089.38,613.51 1107.14,621.88 1123.32,622.56C1131.96,622.92 1148.82,617.49 1134.31,579.95L1134.3,579.95ZM722.42,435.05C815,510.03 870.92,624.87 870.92,744.82C870.92,829.27 834.14,902.64 764.56,957.04C694.62,1011.71 597.67,1041.82 491.54,1041.82C385.42,1041.82 288.47,1011.71 218.52,957.04C148.95,902.66 112.16,829.26 112.16,744.82C112.16,627.52 165.63,515.12 254.56,440.09C263.93,432.18 278.07,417.65 314.03,417.65L670.2,417.65C699.22,417.65 714.93,428.98 722.41,435.05L722.42,435.05Z" style="fill:rgb(0,0,0);fill-rule:nonzero;"/>
        <path id="svg_3" d="M699.84,468.32C669.46,453.79 663.93,461.53 687.56,485.53C687.56,485.53 724.5,523.04 737.6,581.98C750.7,640.93 733.11,690.54 733.11,690.54C721.86,722.3 730.15,726.98 751.52,700.93C751.52,700.93 800.23,641.62 784.65,571.51C769.08,501.43 699.84,468.31 699.84,468.31L699.84,468.32Z" style="fill:rgb(82,72,76);fill-rule:nonzero;"/>
        <path id="svg_4" d="M699.84,468.32C669.46,453.79 663.93,461.53 687.56,485.53C687.56,485.53 724.5,523.04 737.6,581.98C750.7,640.93 733.11,690.54 733.11,690.54C721.86,722.3 730.15,726.98 751.52,700.93C751.52,700.93 800.23,641.62 784.65,571.51C769.08,501.43 699.84,468.31 699.84,468.31L699.84,468.32Z" style="fill:rgb(82,72,76);fill-rule:nonzero;"/>
    </g>
</svg>
